<svg xmlns="http://www.w3.org/2000/svg" width="1800" height="240" viewBox="0 0 1800 240" preserveAspectRatio="xMaxYMax slice">
<!-- Phong cảnh núi đồi, ruộng bậc thang Tây Bắc: tự vẽ, không dùng ảnh bên ngoài -->
<defs>
<linearGradient id="troi" x1="0" y1="0" x2="0" y2="1"><stop offset="0" stop-color="#b3cdd3"/><stop offset=".55" stop-color="#d8e6dc"/><stop offset="1" stop-color="#eef3e6"/></linearGradient>
<radialGradient id="nang" cx=".78" cy=".1" r=".55"><stop offset="0" stop-color="#fffbe6" stop-opacity=".95"/><stop offset="1" stop-color="#fffbe6" stop-opacity="0"/></radialGradient>
<linearGradient id="n1" x1="0" y1="0" x2="0" y2="1"><stop offset="0" stop-color="#8aa6a6"/><stop offset="1" stop-color="#b7cac3"/></linearGradient>
<linearGradient id="n2" x1="0" y1="0" x2="0" y2="1"><stop offset="0" stop-color="#5b8672"/><stop offset="1" stop-color="#8db092"/></linearGradient>
<linearGradient id="n3" x1="0" y1="0" x2="0" y2="1"><stop offset="0" stop-color="#3d7650"/><stop offset="1" stop-color="#6d9b60"/></linearGradient>
<linearGradient id="n4" x1="0" y1="0" x2="0" y2="1"><stop offset="0" stop-color="#5a9548"/><stop offset="1" stop-color="#86b35c"/></linearGradient>
<linearGradient id="r1" x1="0" y1="0" x2="0" y2="1"><stop offset="0" stop-color="#2e6b41"/><stop offset="1" stop-color="#255a37"/></linearGradient>
<linearGradient id="r2" x1="0" y1="0" x2="0" y2="1"><stop offset="0" stop-color="#1f5334"/><stop offset="1" stop-color="#153f27"/></linearGradient>
<linearGradient id="suong" x1="0" y1="0" x2="0" y2="1"><stop offset="0" stop-color="#fff" stop-opacity="0"/><stop offset=".5" stop-color="#fff" stop-opacity=".55"/><stop offset="1" stop-color="#fff" stop-opacity="0"/></linearGradient>
</defs>
<rect width="1800" height="240" fill="url(#troi)"/>
<rect width="1800" height="240" fill="url(#nang)"/>
<path d="M0 240 L0 83.3 Q0.0 83.3 34.6 94.2 Q69.2 105.0 103.8 104.5 Q138.5 104.0 173.1 97.3 Q207.7 90.6 242.3 94.2 Q276.9 97.8 311.5 97.2 Q346.2 96.5 380.8 99.1 Q415.4 101.7 450.0 103.2 Q484.6 104.7 519.2 94.3 Q553.8 83.9 588.5 82.1 Q623.1 80.3 657.7 90.6 Q692.3 100.8 726.9 94.0 Q761.5 87.1 796.2 90.3 Q830.8 93.6 865.4 81.4 Q900.0 69.3 934.6 73.9 Q969.2 78.5 1003.8 80.6 Q1038.5 82.8 1073.1 74.1 Q1107.7 65.5 1142.3 73.8 Q1176.9 82.0 1211.5 79.6 Q1246.2 77.2 1280.8 63.3 Q1315.4 49.4 1350.0 47.6 Q1384.6 45.9 1419.2 51.5 Q1453.8 57.2 1488.5 61.2 Q1523.1 65.3 1557.7 56.2 Q1592.3 47.0 1626.9 43.5 Q1661.5 40.1 1696.2 41.9 Q1730.8 43.8 1765.4 37.5 L1800 240 Z" fill="url(#n1)" opacity=".9"/>
<rect y="68" width="1800" height="52" fill="url(#suong)"/>
<path d="M0 240 L0 139.3 Q0.0 139.3 30.0 138.3 Q60.0 137.3 90.0 125.8 Q120.0 114.2 150.0 113.3 Q180.0 112.3 210.0 119.6 Q240.0 126.8 270.0 124.0 Q300.0 121.2 330.0 118.7 Q360.0 116.2 390.0 110.1 Q420.0 104.1 450.0 105.7 Q480.0 107.3 510.0 105.5 Q540.0 103.7 570.0 101.5 Q600.0 99.4 630.0 92.7 Q660.0 86.0 690.0 87.6 Q720.0 89.2 750.0 87.2 Q780.0 85.3 810.0 87.9 Q840.0 90.4 870.0 92.5 Q900.0 94.6 930.0 93.2 Q960.0 91.8 990.0 86.4 Q1020.0 81.0 1050.0 79.5 Q1080.0 77.9 1110.0 75.8 Q1140.0 73.6 1170.0 71.0 Q1200.0 68.4 1230.0 68.8 Q1260.0 69.1 1290.0 74.9 Q1320.0 80.7 1350.0 79.9 Q1380.0 79.1 1410.0 80.9 Q1440.0 82.8 1470.0 90.1 Q1500.0 97.4 1530.0 94.6 Q1560.0 91.9 1590.0 93.9 Q1620.0 96.0 1650.0 93.9 Q1680.0 91.9 1710.0 91.2 Q1740.0 90.6 1770.0 96.0 Q1800.0 101.3 1830.0 101.0 L1800 240 Z" fill="url(#n2)"/>
<rect y="106" width="1800" height="38" fill="url(#suong)" opacity=".7"/>
<path d="M0 240 L0 138.6 Q0.0 138.6 26.5 140.4 Q52.9 142.2 79.4 140.1 Q105.9 138.0 132.4 139.2 Q158.8 140.4 185.3 139.9 Q211.8 139.4 238.2 134.3 Q264.7 129.1 291.2 128.1 Q317.6 127.0 344.1 132.9 Q370.6 138.9 397.1 133.6 Q423.5 128.4 450.0 127.6 Q476.5 126.7 502.9 132.2 Q529.4 137.7 555.9 133.0 Q582.4 128.2 608.8 130.6 Q635.3 133.0 661.8 129.6 Q688.2 126.2 714.7 127.0 Q741.2 127.8 767.6 123.4 Q794.1 119.1 820.6 122.5 Q847.1 126.0 873.5 127.5 Q900.0 129.0 926.5 125.9 Q952.9 122.8 979.4 124.2 Q1005.9 125.7 1032.4 124.8 Q1058.8 124.0 1085.3 118.9 Q1111.8 113.9 1138.2 119.3 Q1164.7 124.6 1191.2 123.2 Q1217.6 121.7 1244.1 119.3 Q1270.6 116.9 1297.1 114.7 Q1323.5 112.5 1350.0 119.2 Q1376.5 125.9 1402.9 122.8 Q1429.4 119.7 1455.9 121.8 Q1482.4 123.8 1508.8 125.3 Q1535.3 126.7 1561.8 125.6 Q1588.2 124.4 1614.7 126.3 Q1641.2 128.2 1667.6 124.3 Q1694.1 120.3 1720.6 123.9 Q1747.1 127.5 1773.5 125.0 L1800 240 Z" fill="url(#n3)"/>
<path d="M0 240 L0 156.1 Q0.0 156.1 22.5 155.3 Q45.0 154.4 67.5 155.2 Q90.0 156.1 112.5 154.9 Q135.0 153.7 157.5 153.1 Q180.0 152.6 202.5 153.7 Q225.0 154.8 247.5 156.7 Q270.0 158.6 292.5 158.0 Q315.0 157.5 337.5 157.3 Q360.0 157.1 382.5 155.0 Q405.0 152.8 427.5 154.1 Q450.0 155.4 472.5 154.4 Q495.0 153.5 517.5 153.2 Q540.0 152.9 562.5 152.9 Q585.0 152.8 607.5 153.4 Q630.0 154.0 652.5 157.1 Q675.0 160.1 697.5 160.0 Q720.0 159.9 742.5 160.1 Q765.0 160.4 787.5 160.7 Q810.0 161.0 832.5 159.1 Q855.0 157.1 877.5 158.0 Q900.0 158.8 922.5 160.5 Q945.0 162.2 967.5 163.1 Q990.0 163.9 1012.5 164.9 Q1035.0 165.9 1057.5 166.5 Q1080.0 167.1 1102.5 164.5 Q1125.0 161.9 1147.5 164.5 Q1170.0 167.0 1192.5 167.8 Q1215.0 168.6 1237.5 168.5 Q1260.0 168.4 1282.5 167.7 Q1305.0 166.9 1327.5 168.6 Q1350.0 170.3 1372.5 169.3 Q1395.0 168.3 1417.5 172.1 Q1440.0 175.9 1462.5 176.2 Q1485.0 176.4 1507.5 175.6 Q1530.0 174.9 1552.5 174.3 Q1575.0 173.8 1597.5 176.6 Q1620.0 179.4 1642.5 178.5 Q1665.0 177.6 1687.5 179.2 Q1710.0 180.8 1732.5 181.0 Q1755.0 181.2 1777.5 180.1 Q1800.0 179.1 1822.5 179.0 L1800 240 Z" fill="url(#n4)"/>
<g><path d="M720 150.0 C960 130.0 1180 145.0 1400 133.0 S1650 143.0 1800 135.0" stroke="#c4dc8f" stroke-opacity="0.60" stroke-width="2" fill="none"/><path d="M738 156.5 C960 136.5 1180 151.5 1400 139.5 S1650 149.5 1800 141.5" stroke="#c4dc8f" stroke-opacity="0.55" stroke-width="2" fill="none"/><path d="M756 163.0 C960 143.0 1180 158.0 1400 146.0 S1650 156.0 1800 148.0" stroke="#c4dc8f" stroke-opacity="0.51" stroke-width="2" fill="none"/><path d="M774 169.5 C960 149.5 1180 164.5 1400 152.5 S1650 162.5 1800 154.5" stroke="#c4dc8f" stroke-opacity="0.46" stroke-width="2" fill="none"/><path d="M792 176.0 C960 156.0 1180 171.0 1400 159.0 S1650 169.0 1800 161.0" stroke="#c4dc8f" stroke-opacity="0.42" stroke-width="2" fill="none"/><path d="M810 182.5 C960 162.5 1180 177.5 1400 165.5 S1650 175.5 1800 167.5" stroke="#c4dc8f" stroke-opacity="0.38" stroke-width="2" fill="none"/><path d="M828 189.0 C960 169.0 1180 184.0 1400 172.0 S1650 182.0 1800 174.0" stroke="#c4dc8f" stroke-opacity="0.33" stroke-width="2" fill="none"/><path d="M846 195.5 C960 175.5 1180 190.5 1400 178.5 S1650 188.5 1800 180.5" stroke="#c4dc8f" stroke-opacity="0.28" stroke-width="2" fill="none"/><path d="M864 202.0 C960 182.0 1180 197.0 1400 185.0 S1650 195.0 1800 187.0" stroke="#c4dc8f" stroke-opacity="0.24" stroke-width="2" fill="none"/><path d="M882 208.5 C960 188.5 1180 203.5 1400 191.5 S1650 201.5 1800 193.5" stroke="#c4dc8f" stroke-opacity="0.20" stroke-width="2" fill="none"/></g>
<path d="M0 240 L0 196.0 Q6.3 194.7 12.6 201.9 Q22.7 195.8 32.8 201.7 Q39.5 193.6 46.3 201.3 Q57.7 195.0 69.2 201.1 Q78.2 196.2 87.3 200.6 Q92.3 195.0 97.3 200.3 Q107.0 196.6 116.7 200.0 Q128.0 195.2 139.4 199.6 Q146.2 195.8 153.1 199.1 Q166.1 191.3 179.1 198.7 Q191.1 191.4 203.1 198.1 Q208.3 192.5 213.6 197.5 Q222.6 193.5 231.6 197.2 Q244.2 191.5 256.8 196.7 Q263.0 188.1 269.3 196.0 Q275.3 187.1 281.3 195.7 Q289.9 189.1 298.5 195.4 Q306.3 189.0 314.0 194.9 Q320.5 191.3 327.0 194.5 Q338.9 189.7 350.9 194.2 Q362.1 189.3 373.3 193.5 Q386.1 184.6 398.8 193.0 Q409.9 184.8 420.9 192.4 Q430.6 184.5 440.2 191.9 Q446.2 185.6 452.2 191.5 Q463.8 187.0 475.4 191.2 Q487.8 182.5 500.2 190.8 Q508.5 185.2 516.7 190.4 Q525.3 184.8 533.9 190.1 Q546.9 184.6 559.9 189.9 Q565.1 186.0 570.3 189.6 Q581.0 180.5 591.8 189.5 Q600.8 183.3 609.7 189.3 Q619.1 181.7 628.5 189.2 Q635.3 182.4 642.1 189.1 Q651.5 182.3 661.0 189.0 Q667.4 185.0 673.9 189.0 Q681.7 180.4 689.4 189.0 Q697.2 182.4 705.0 189.0 Q712.4 185.5 719.9 189.1 Q725.4 181.3 730.9 189.1 Q742.2 184.0 753.4 189.2 Q763.8 182.3 774.3 189.4 Q786.5 180.8 798.7 189.6 Q806.9 181.0 815.2 189.9 Q827.9 183.6 840.6 190.1 Q852.7 184.6 864.7 190.5 Q872.7 186.5 880.7 190.9 Q892.7 187.3 904.7 191.3 Q910.3 183.9 915.9 191.7 Q927.0 186.1 938.2 192.0 Q949.9 189.2 961.6 192.5 Q968.7 188.3 975.8 193.1 Q984.1 189.4 992.5 193.4 Q998.0 188.8 1003.6 193.8 Q1015.8 185.2 1028.0 194.1 Q1038.9 188.9 1049.9 194.8 Q1056.9 186.6 1063.9 195.3 Q1073.1 188.3 1082.3 195.7 Q1087.6 191.9 1092.8 196.2 Q1104.5 188.7 1116.2 196.5 Q1128.3 190.5 1140.3 197.1 Q1148.7 191.3 1157.1 197.8 Q1168.9 193.3 1180.7 198.2 Q1190.0 194.1 1199.3 198.8 Q1210.4 196.2 1221.6 199.2 Q1232.0 191.0 1242.5 199.8 Q1247.7 193.7 1252.9 200.2 Q1263.1 192.3 1273.2 200.4 Q1282.9 196.3 1292.6 200.8 Q1300.8 192.5 1309.0 201.2 Q1321.3 197.7 1333.5 201.5 Q1339.3 198.3 1345.1 201.9 Q1350.3 196.4 1355.5 202.0 Q1361.6 194.0 1367.7 202.2 Q1378.0 198.6 1388.2 202.3 Q1397.5 197.6 1406.8 202.5 Q1415.8 198.4 1424.7 202.7 Q1431.0 198.7 1437.4 202.8 Q1445.4 195.6 1453.4 202.9 Q1462.8 199.7 1472.2 203.0 Q1482.9 194.8 1493.6 203.0 Q1504.8 195.2 1516.0 203.0 Q1521.0 197.2 1526.1 202.9 Q1531.6 195.3 1537.1 202.9 Q1543.5 195.6 1549.9 202.8 Q1557.0 195.6 1564.0 202.8 Q1571.5 199.4 1579.0 202.7 Q1587.1 197.7 1595.2 202.5 Q1607.4 197.6 1619.6 202.4 Q1628.7 195.8 1637.7 202.1 Q1650.3 198.2 1662.8 201.8 Q1672.7 195.3 1682.5 201.4 Q1693.3 192.2 1704.2 201.0 Q1711.7 193.4 1719.2 200.6 Q1728.4 193.9 1737.6 200.3 Q1743.1 192.0 1748.6 199.9 Q1761.4 194.5 1774.2 199.7 Q1781.8 190.1 1789.3 199.0 Q1795.2 195.2 1801.1 198.7 L1800 240 Z" fill="url(#r1)"/>
<path d="M0 240 L0 216.0 Q12.7 212.9 25.4 222.0 Q40.6 215.7 55.7 222.0 Q69.3 210.7 82.8 221.8 Q98.9 216.2 115.0 221.7 Q128.5 212.5 142.0 221.4 Q154.0 209.4 166.1 221.1 Q178.3 213.2 190.6 220.8 Q207.1 211.3 223.5 220.4 Q233.5 213.4 243.5 219.9 Q255.5 215.1 267.4 219.5 Q280.5 209.1 293.6 219.0 Q304.9 207.7 316.1 218.5 Q332.4 209.6 348.7 218.0 Q362.5 212.4 376.3 217.3 Q383.9 204.8 391.4 216.7 Q401.3 210.6 411.1 216.3 Q427.1 205.9 443.1 215.9 Q451.3 208.6 459.5 215.1 Q468.9 208.6 478.4 214.8 Q485.4 206.1 492.5 214.3 Q502.5 206.9 512.6 214.0 Q521.4 208.7 530.3 213.6 Q537.6 202.2 544.9 213.2 Q559.4 204.4 573.9 212.9 Q582.1 207.2 590.4 212.4 Q598.6 205.5 606.8 212.1 Q614.3 205.6 621.9 211.8 Q630.9 206.0 640.0 211.6 Q653.5 203.6 667.1 211.3 Q678.8 204.1 690.5 210.9 Q702.9 200.4 715.3 210.7 Q725.4 205.9 735.5 210.4 Q747.3 203.2 759.1 210.3 Q773.9 205.2 788.7 210.1 Q804.4 205.9 820.1 210.0 Q832.6 202.5 845.0 210.0 Q855.1 198.9 865.3 210.0 Q879.3 204.8 893.3 210.1 Q905.3 201.4 917.2 210.3 Q924.6 205.8 931.9 210.5 Q944.9 200.8 957.9 210.6 Q969.6 203.5 981.2 210.9 Q993.3 205.1 1005.3 211.2 Q1021.1 199.9 1036.9 211.6 Q1048.7 207.9 1060.5 212.1 Q1071.5 202.1 1082.4 212.5 Q1092.7 208.1 1102.9 212.9 Q1111.8 203.7 1120.7 213.4 Q1133.9 207.4 1147.1 213.7 Q1160.3 204.2 1173.6 214.3 Q1190.2 204.2 1206.9 214.9 Q1218.2 205.2 1229.6 215.7 Q1245.8 205.2 1262.1 216.2 Q1276.6 208.2 1291.1 216.9 Q1303.2 206.8 1315.3 217.6 Q1328.6 208.3 1341.8 218.1 Q1351.1 213.9 1360.4 218.7 Q1370.1 210.4 1379.8 219.0 Q1392.5 213.8 1405.2 219.4 Q1414.1 208.3 1423.0 219.9 Q1430.7 208.8 1438.4 220.2 Q1453.2 211.9 1467.9 220.4 Q1484.8 211.4 1501.8 220.9 Q1508.9 209.8 1515.9 221.3 Q1527.1 210.1 1538.2 221.4 Q1553.3 216.5 1568.5 221.6 Q1575.9 217.7 1583.3 221.8 Q1598.1 211.6 1612.9 221.9 Q1622.2 217.1 1631.4 222.0 Q1642.1 211.6 1652.8 222.0 Q1667.2 211.0 1681.6 222.0 Q1698.3 211.8 1714.9 221.9 Q1730.3 217.6 1745.7 221.7 Q1752.7 210.5 1759.8 221.4 Q1773.0 214.7 1786.2 221.3 Q1794.4 214.3 1802.7 221.0 L1800 240 Z" fill="url(#r2)"/>
</svg>